<svg xmlns="http://www.w3.org/2000/svg" width="58.018" height="40.448" viewBox="0 0 58.018 40.448"><defs><style>.a,.b{fill:#72c0d8;}.a{font-size:30px;font-family:ArialNarrow-BoldItalic, Arial Narrow;font-weight:700;font-style:italic;}.b{stroke:#72c0d8;stroke-miterlimit:2.61;stroke-width:0.295px;}.c{font-size:3px;font-family:FuturaBT-Book, Futura Bk BT;letter-spacing:0.02em;}.d{letter-spacing:0.01em;}.e{letter-spacing:0.03em;}.f{letter-spacing:0.05em;}</style></defs><g transform="translate(29.009 20.138)"><g transform="translate(-29.009 -20.15)"><text class="a" transform="translate(0 28.012)"><tspan x="0" y="0">D</tspan></text><path d="M42.1,16.8l4.131.708a11.568,11.568,0,0,1-3.659,5.607,8.912,8.912,0,0,1-5.725,1.948,7.193,7.193,0,0,1-5.784-2.42Q29,20.219,29,15.615a16.467,16.467,0,0,1,1.417-6.846,10.86,10.86,0,0,1,3.9-4.722,9.561,9.561,0,0,1,5.312-1.653,7.437,7.437,0,0,1,5.312,1.889A8.027,8.027,0,0,1,47.3,9.477l-3.954.413a4.781,4.781,0,0,0-1.3-2.774,3.541,3.541,0,0,0-2.479-.826,5.194,5.194,0,0,0-3.187,1.121,7.673,7.673,0,0,0-2.361,3.541,13.811,13.811,0,0,0-.885,4.84,6.2,6.2,0,0,0,1.18,4.072A3.541,3.541,0,0,0,37.2,21.281a4.427,4.427,0,0,0,2.951-1.121A6.728,6.728,0,0,0,42.161,16.8" transform="translate(-11.116 3.803)"/><path d="M63.116,24.71l4.191-21.9h4.131L67.9,20.992H78.225l-.708,3.659ZM51.193,17.627l3.954-.236a4.8,4.8,0,0,0,.649,2.774q.59.708,3.364,1.18a4.423,4.423,0,0,0,2.951-.767A2.479,2.479,0,0,0,63,18.69a2.125,2.125,0,0,0-.767-1.653,13.752,13.752,0,0,0-2.892-1.594,26.442,26.442,0,0,1-3.423-1.83,5.253,5.253,0,0,1-1.653-2.007,5.843,5.843,0,0,1-.649-2.774,6.2,6.2,0,0,1,1.83-4.6A7.28,7.28,0,0,1,60.814,2.4,7.708,7.708,0,0,1,66.3,4.23a6.846,6.846,0,0,1,2.125,4.84l-3.954.177a3.659,3.659,0,0,0-1.062-2.42A3.718,3.718,0,0,0,60.755,6a3.659,3.659,0,0,0-2.479.649A2.125,2.125,0,0,0,57.509,8.3a2.007,2.007,0,0,0,.767,1.535,13.752,13.752,0,0,0,3.01,1.712A16.842,16.842,0,0,1,65.713,14.2a5.371,5.371,0,0,1,1.417,3.836A6.669,6.669,0,0,1,65,23a8.11,8.11,0,0,1-5.9,2.066,10.034,10.034,0,0,1-4.486-.944A5.607,5.607,0,0,1,51.9,21.464,8.558,8.558,0,0,1,51.193,17.627Z" transform="translate(-20.207 3.797)"/><line class="b" x2="55.48" transform="translate(1.594 32.698)"/><line class="b" x2="55.48" transform="translate(1.594 40.312)"/><text class="c" transform="translate(1.357 37.35)"><tspan x="0" y="0">DCSL </tspan><tspan class="d" y="0">C</tspan><tspan class="e" y="0">orpo</tspan><tspan y="0">rat</tspan><tspan class="e" y="0">e Se</tspan><tspan class="f" y="0">r</tspan><tspan class="e" y="0">vi</tspan><tspan y="0">c</tspan><tspan class="e" y="0">es Limi</tspan><tspan y="0">t</tspan><tspan class="e" y="0">ed</tspan></text></g></g></svg>